<svg version="1.1" id="Layer_1" xmlns="http://www.w3.org/2000/svg" xmlns:xlink="http://www.w3.org/1999/xlink" x="0px" y="0px"
	 width="100%" viewBox="0 0 512 512" enable-background="new 0 0 512 512" xml:space="preserve">
<path fill="#000000" opacity="1.000000" stroke="none" 
	d="
M513.000000,341.000000 
	C513.000000,368.020905 513.000000,395.041779 512.744080,422.853271 
	C510.521332,421.461853 508.681366,419.147491 506.566071,417.120453 
	C496.635315,407.603973 478.329987,410.929626 474.022003,425.398804 
	C472.279602,431.250946 472.339020,437.633484 470.657074,443.510956 
	C467.228882,455.490265 458.764404,463.320587 447.554657,468.936096 
	C439.084869,469.991486 431.041870,471.506989 422.946442,471.878204 
	C411.317566,472.411469 399.650421,472.111115 387.535950,472.093994 
	C372.047699,472.069824 357.023163,472.118256 341.535034,472.094177 
	C326.714111,472.070007 312.356750,472.118317 297.535828,472.093811 
	C285.714081,472.069763 274.355927,472.118530 262.534302,472.094574 
	C252.046570,472.070282 242.022293,472.118683 231.534546,472.094055 
	C220.713425,472.069458 210.355774,472.117950 199.534607,472.093628 
	C188.380356,472.069489 177.689621,472.118103 166.535339,472.093750 
	C156.047333,472.069427 146.022919,472.118103 135.534912,472.093933 
	C125.380470,472.069489 115.689613,472.117859 105.535233,472.093170 
	C95.380577,471.735352 85.689445,471.450623 75.594559,471.093262 
	C63.640827,469.267883 54.907852,463.052643 47.897987,453.555115 
	C42.429909,445.173157 41.105350,435.940277 41.093418,426.713104 
	C40.947556,313.947571 40.925747,201.181641 41.163219,88.416412 
	C41.178967,80.937447 43.555424,73.463440 44.989182,65.662827 
	C50.258331,55.050827 58.497890,48.280590 69.460648,44.057537 
	C78.586044,43.285999 87.292175,42.559963 96.461716,41.908974 
	C105.282951,41.933907 113.640785,41.883793 122.462120,41.908123 
	C130.616653,41.932766 138.307678,41.882961 146.462158,41.907780 
	C155.283539,41.932678 163.641434,41.882961 172.462830,41.907425 
	C181.616852,41.932056 190.307388,41.882507 199.461533,41.907124 
	C207.949493,41.931927 215.973831,41.882568 224.461761,41.907402 
	C233.283569,41.932320 241.641800,41.883049 250.463531,41.907585 
	C259.284515,41.932110 267.641998,41.882832 276.463013,41.907345 
	C288.950867,41.931881 300.975189,41.882622 313.463043,41.907139 
	C326.284363,41.931705 338.642120,41.882496 351.463440,41.906910 
	C365.951080,41.931339 379.975250,41.882153 394.462952,41.906586 
	C404.719635,41.986713 414.517120,42.180744 424.304749,41.952148 
	C436.476898,41.667858 447.884460,43.828907 458.078461,51.415100 
	C469.578827,61.016399 472.921387,73.769943 472.941437,87.577438 
	C473.060181,169.320770 472.999908,251.064377 473.000092,332.807892 
	C473.000122,343.511688 478.011078,349.320770 490.024445,352.546356 
	C496.970825,354.411469 506.643188,349.806061 510.721924,342.806427 
	C511.176361,342.026581 512.226257,341.593750 513.000000,341.000000 
M249.903519,232.981644 
	C259.293365,233.151382 268.390778,231.781891 277.733185,227.965698 
	C290.487823,222.552002 301.159760,214.448471 308.968994,202.950562 
	C321.018097,185.210129 324.458405,165.504807 318.733826,145.117065 
	C312.839996,124.126534 299.992035,108.184769 278.693268,99.229172 
	C270.044281,96.227516 261.331818,93.560677 251.102539,94.021111 
	C241.232040,93.770615 231.973953,96.320648 222.292160,100.226875 
	C208.248703,107.034538 197.155533,117.072456 190.067169,131.014511 
	C182.469543,145.958252 180.087616,161.654968 183.892715,178.303299 
	C188.745956,199.537476 200.490570,215.170135 220.246674,225.700287 
	C229.425812,229.710831 238.871094,232.648727 249.903519,232.981644 
M137.079926,283.019836 
	C132.719391,283.068817 128.358871,283.117767 123.072159,283.020111 
	C117.047821,283.069000 111.023476,283.117859 104.223869,283.020935 
	C93.076057,284.971619 88.166222,292.939453 88.115128,299.741699 
	C87.861465,333.512970 87.960258,367.287231 88.028122,401.060242 
	C88.043854,408.887817 97.045692,418.576019 105.829529,418.002472 
	C107.538307,418.336548 109.262077,419.012238 110.952927,418.938049 
	C115.309174,418.746857 119.650848,418.223724 124.925102,417.982147 
	C131.630035,417.693939 138.334976,417.405731 145.869522,417.015381 
	C156.070404,415.631012 164.773010,411.215240 172.732193,403.790436 
	C176.823074,398.515442 181.726440,393.679382 184.856506,387.885345 
	C195.362946,368.436829 196.320862,347.644409 190.701447,326.690857 
	C187.541367,314.907684 181.806992,304.145447 171.366272,295.876526 
	C165.607483,290.346588 159.109848,286.221832 150.276459,284.806488 
	C146.183975,284.260010 142.091476,283.713501 137.079926,283.019836 
M150.949875,135.014664 
	C153.110886,135.010040 155.295456,135.210754 157.428879,134.965820 
	C167.504425,133.809067 173.273331,129.904465 176.581696,119.906387 
	C179.181534,112.049538 175.300797,102.735565 168.320160,97.633781 
	C162.624695,93.471252 156.365402,93.916809 149.072052,94.020454 
	C142.714142,94.069290 136.356216,94.118126 129.071625,94.020370 
	C122.380646,94.069359 115.689659,94.118347 108.090675,94.021225 
	C105.760818,94.014549 103.417152,93.840141 101.103516,94.030556 
	C91.661369,94.807648 85.949600,99.374359 83.224510,106.793182 
	C79.694756,116.402695 83.278793,126.122337 90.655724,131.325577 
	C96.320290,135.321014 102.634140,134.958359 108.993835,136.037277 
	C108.995392,161.313812 108.992775,186.590363 109.000259,211.866898 
	C109.004097,224.831253 118.099945,233.492203 131.776917,232.982056 
	C142.764771,231.389862 150.418594,220.953049 150.178329,210.059692 
	C149.627563,185.089325 150.028336,160.097977 150.949875,135.014664 
M228.273727,297.209747 
	C214.694107,309.222076 205.924896,324.194305 204.200195,342.161041 
	C201.846283,366.682648 209.317398,387.946716 229.174377,404.693848 
	C238.228790,411.323944 248.078247,416.276733 259.918274,418.984772 
	C261.398956,419.016998 262.921387,418.835724 264.353699,419.115570 
	C274.892944,421.174622 285.101044,420.084198 295.818054,416.014587 
	C306.948120,413.206329 316.226379,406.821716 323.570282,398.595734 
	C337.391266,383.114838 344.416321,365.023346 342.139679,343.599335 
	C339.880035,322.335022 329.827118,305.964630 312.966583,293.653839 
	C304.159698,287.223480 294.200592,282.828247 282.158142,281.998047 
	C272.198883,279.501068 262.582855,281.619812 252.249466,284.016541 
	C244.462982,288.332642 236.676498,292.648743 228.273727,297.209747 
M396.499512,94.000923 
	C390.173248,94.000374 383.842987,93.859489 377.521881,94.039566 
	C371.451630,94.212494 366.608002,97.082230 363.040466,101.892303 
	C357.914764,108.803238 357.355896,116.418106 361.074646,123.985504 
	C364.991577,131.956116 372.089294,135.023148 380.722260,135.005661 
	C390.378113,134.986115 400.040070,134.785736 409.688202,135.059418 
	C419.536072,135.338806 428.951263,130.026321 431.557068,119.026199 
	C433.566833,110.542389 428.933868,96.973824 417.683990,95.132263 
	C411.071136,94.049767 404.234894,94.332344 396.499512,94.000923 
M362.925934,315.542786 
	C366.064789,320.893524 371.065460,323.691193 376.933258,323.882904 
	C388.908813,324.274170 400.915649,324.295868 412.891724,323.911865 
	C423.869507,323.559906 432.460388,315.158081 431.929596,302.958038 
	C431.428925,291.449371 423.516449,283.663269 412.541809,283.123779 
	C401.246704,282.568512 389.894928,282.736389 378.583618,283.089844 
	C370.809357,283.332733 364.399445,286.813324 361.030914,294.149292 
	C357.794586,301.197327 357.608887,308.322479 362.925934,315.542786 
M410.168823,419.000000 
	C411.585083,418.671539 412.997833,418.075897 414.418182,418.057068 
	C425.442169,417.910767 433.456421,405.825806 431.989868,395.080475 
	C430.851501,386.739532 422.887299,377.208344 410.971893,377.871002 
	C400.012085,378.480530 388.964935,378.476379 378.005585,377.862457 
	C367.495941,377.273682 355.573792,389.968262 359.726715,403.287567 
	C363.445862,415.215759 370.757355,418.314697 381.751221,418.901764 
	C390.886597,419.389587 400.068756,419.001038 410.168823,419.000000 
M360.864929,217.396194 
	C364.369659,224.808624 369.741150,229.197693 378.412079,229.048981 
	C389.882385,228.852249 401.366394,229.237030 412.827515,228.857529 
	C416.355011,228.740723 420.217072,227.592651 423.245911,225.780273 
	C430.427765,221.482803 433.760590,211.621109 431.366669,203.865417 
	C428.355377,194.109482 421.775909,189.002228 412.213654,189.001038 
	C400.407440,188.999557 388.587067,188.677536 376.803528,189.194260 
	C373.234436,189.350784 369.191010,191.113037 366.364441,193.383987 
	C358.756531,199.496475 357.338837,207.705841 360.864929,217.396194 
z"/>
<path fill="#4EADFE" opacity="1.000000" stroke="none" 
	d="
M513.000000,340.531342 
	C512.226257,341.593750 511.176361,342.026581 510.721924,342.806427 
	C506.643188,349.806061 496.970825,354.411469 490.024445,352.546356 
	C478.011078,349.320770 473.000122,343.511688 473.000092,332.807892 
	C472.999908,251.064377 473.060181,169.320770 472.941437,87.577438 
	C472.921387,73.769943 469.578827,61.016399 458.271332,51.072750 
	C458.889526,48.743984 459.827454,47.086014 459.919281,45.382439 
	C460.149963,41.102844 459.888550,36.799183 460.023163,32.511417 
	C460.291443,23.966143 460.693115,15.425056 461.420349,6.933884 
	C473.106995,10.539914 482.658051,17.199986 490.708710,25.487392 
	C500.778931,35.853771 507.937866,48.222073 511.087738,62.607956 
	C511.213837,63.183922 512.339844,63.540955 513.000000,64.000000 
	C513.000000,156.020889 513.000000,248.041794 513.000000,340.531342 
z"/>
<path fill="#03EFFE" opacity="1.000000" stroke="none" 
	d="
M1.000006,450.000000 
	C1.000000,321.644043 1.000000,193.288055 1.307914,64.797058 
	C2.075102,63.851696 2.721458,63.093807 2.965499,62.223148 
	C6.451880,49.784889 11.305803,38.096142 21.160973,29.274071 
	C21.618919,31.064880 21.976042,32.531620 21.976151,33.998379 
	C21.987391,184.703766 21.971727,335.409180 21.643261,485.979858 
	C11.931224,476.473419 6.698472,464.826355 2.984483,452.339478 
	C2.680951,451.318970 2.123621,450.373962 1.684233,449.393860 
	C1.456161,449.595917 1.228086,449.797974 1.000006,450.000000 
z"/>
<path fill="#4EADFE" opacity="1.000000" stroke="none" 
	d="
M447.958038,468.884979 
	C458.764404,463.320587 467.228882,455.490265 470.657074,443.510956 
	C472.339020,437.633484 472.279602,431.250946 474.022003,425.398804 
	C478.329987,410.929626 496.635315,407.603973 506.566071,417.120453 
	C508.681366,419.147491 510.521332,421.461853 512.744080,423.321899 
	C513.000000,431.687561 513.000000,440.375122 512.692383,449.201660 
	C512.021240,449.677917 511.416962,449.961853 511.328674,450.360199 
	C506.920837,470.240570 495.932159,485.801117 479.703156,497.683960 
	C471.184631,503.921295 461.737488,508.458588 450.781555,509.854675 
	C449.633881,507.477295 448.159393,505.303406 448.110687,503.098053 
	C447.859009,491.698120 447.972137,480.290161 447.958038,468.884979 
z"/>
<path fill="#4BAFFE" opacity="1.000000" stroke="none" 
	d="
M461.039673,6.882241 
	C460.693115,15.425056 460.291443,23.966143 460.023163,32.511417 
	C459.888550,36.799183 460.149963,41.102844 459.919281,45.382439 
	C459.827454,47.086014 458.889526,48.743984 458.143951,50.765068 
	C447.884460,43.828907 436.476898,41.667858 424.304749,41.952148 
	C414.517120,42.180744 404.719635,41.986713 394.463165,41.448589 
	C393.999878,27.611319 393.999939,14.305659 394.000000,1.000000 
	C411.020905,1.000000 428.041779,1.000000 445.199921,1.321107 
	C446.325500,2.094149 447.279816,2.653670 448.308167,2.979239 
	C452.539764,4.318918 456.793854,5.587504 461.039673,6.882241 
z"/>
<path fill="#4BAFFE" opacity="1.000000" stroke="none" 
	d="
M447.554657,468.936096 
	C447.972137,480.290161 447.859009,491.698120 448.110687,503.098053 
	C448.159393,505.303406 449.633881,507.477295 450.574524,510.208466 
	C449.132233,511.500854 447.566132,512.250427 446.000000,513.000000 
	C426.645782,513.000000 407.291534,513.000000 387.490967,512.578979 
	C387.363068,509.058105 387.920868,505.960938 387.956146,502.857880 
	C388.072479,492.628601 387.999756,482.397186 387.999634,472.166595 
	C399.650421,472.111115 411.317566,472.411469 422.946442,471.878204 
	C431.041870,471.506989 439.084869,469.991486 447.554657,468.936096 
z"/>
<path fill="#3FBAFE" opacity="1.000000" stroke="none" 
	d="
M297.999420,472.166626 
	C312.356750,472.118317 326.714111,472.070007 341.617493,472.493408 
	C342.442352,482.669495 342.843475,492.372650 342.941010,502.078796 
	C342.981232,506.077209 342.933716,509.926971 346.000000,513.000000 
	C330.645782,513.000000 315.291534,513.000000 299.446289,512.578979 
	C298.636871,509.058105 298.079224,505.960938 298.043854,502.857880 
	C297.927246,492.628632 297.999634,482.397217 297.999420,472.166626 
z"/>
<path fill="#45B4FE" opacity="1.000000" stroke="none" 
	d="
M346.468658,513.000000 
	C342.933716,509.926971 342.981232,506.077209 342.941010,502.078796 
	C342.843475,492.372650 342.442352,482.669495 342.081055,472.565918 
	C357.023163,472.118256 372.047699,472.069824 387.535950,472.093994 
	C387.999756,482.397186 388.072479,492.628601 387.956146,502.857880 
	C387.920868,505.960938 387.363068,509.058105 387.022278,512.578979 
	C373.645782,513.000000 360.291534,513.000000 346.468658,513.000000 
z"/>
<path fill="#45B4FE" opacity="1.000000" stroke="none" 
	d="
M393.531342,1.000000 
	C393.999939,14.305659 393.999878,27.611319 393.999603,41.374969 
	C379.975250,41.882153 365.951080,41.931339 351.545563,41.507652 
	C351.109467,27.689850 351.054718,14.344925 351.000000,1.000000 
	C365.020905,1.000000 379.041779,1.000000 393.531342,1.000000 
z"/>
<path fill="#41B8FE" opacity="1.000000" stroke="none" 
	d="
M350.531342,1.000000 
	C351.054718,14.344925 351.109467,27.689850 351.082031,41.434032 
	C338.642120,41.882496 326.284363,41.931705 313.463257,41.449120 
	C313.000000,33.156918 313.045410,25.396164 312.985168,17.636229 
	C312.939850,11.798661 314.363556,5.576338 309.000000,1.000000 
	C322.687561,1.000000 336.375122,1.000000 350.531342,1.000000 
z"/>
<path fill="#3DBCFE" opacity="1.000000" stroke="none" 
	d="
M308.531342,1.000000 
	C314.363556,5.576338 312.939850,11.798661 312.985168,17.636229 
	C313.045410,25.396164 313.000000,33.156918 312.999756,41.375343 
	C300.975189,41.882622 288.950867,41.931881 276.463287,41.449306 
	C276.000031,31.764778 276.162384,22.608017 275.933167,13.461065 
	C275.814117,8.710329 275.959198,4.283920 280.000000,1.000000 
	C289.354218,1.000000 298.708466,1.000000 308.531342,1.000000 
z"/>
<path fill="#3BBEFE" opacity="1.000000" stroke="none" 
	d="
M297.535828,472.093842 
	C297.999634,482.397217 297.927246,492.628632 298.043854,502.857880 
	C298.079224,505.960938 298.636871,509.058105 298.977661,512.578979 
	C286.979095,513.000000 274.958221,513.000000 262.542206,512.588623 
	C262.430969,509.901123 262.942566,507.626678 262.960114,505.348450 
	C263.045349,494.288635 262.998108,483.227753 262.997803,472.167267 
	C274.355927,472.118530 285.714081,472.069763 297.535828,472.093842 
z"/>
<path fill="#000000" opacity="1.000000" stroke="none" 
	d="
M446.468658,513.000000 
	C447.566132,512.250427 449.132233,511.500854 450.905396,510.397461 
	C461.737488,508.458588 471.184631,503.921295 479.703156,497.683960 
	C495.932159,485.801117 506.920837,470.240570 511.328674,450.360199 
	C511.416962,449.961853 512.021240,449.677917 512.692383,449.670288 
	C513.000000,470.929077 513.000000,491.858154 513.000000,513.000000 
	C490.979553,513.000000 468.958435,513.000000 446.468658,513.000000 
z"/>
<path fill="#000000" opacity="1.000000" stroke="none" 
	d="
M1.000006,450.468658 
	C1.228086,449.797974 1.456161,449.595917 1.684233,449.393860 
	C2.123621,450.373962 2.680951,451.318970 2.984483,452.339478 
	C6.698472,464.826355 11.931224,476.473419 21.661888,486.331940 
	C28.858685,494.091827 36.296665,500.568542 46.057457,504.380219 
	C53.037445,506.815308 59.865429,508.885223 66.650444,511.087555 
	C67.244606,511.280426 67.556824,512.341919 68.000000,513.000000 
	C45.742085,513.000000 23.484165,513.000000 1.000000,513.000000 
	C1.000000,492.312988 1.000000,471.625153 1.000006,450.468658 
z"/>
<path fill="#000000" opacity="1.000000" stroke="none" 
	d="
M461.420349,6.933886 
	C456.793854,5.587504 452.539764,4.318918 448.308167,2.979239 
	C447.279816,2.653670 446.325500,2.094149 445.668579,1.321107 
	C468.257904,1.000000 490.515839,1.000000 513.000000,1.000000 
	C513.000000,21.687012 513.000000,42.374847 513.000000,63.531342 
	C512.339844,63.540955 511.213837,63.183922 511.087738,62.607956 
	C507.937866,48.222073 500.778931,35.853771 490.708710,25.487392 
	C482.658051,17.199986 473.106995,10.539914 461.420349,6.933886 
z"/>
<path fill="#000000" opacity="1.000000" stroke="none" 
	d="
M20.893473,28.950012 
	C11.305803,38.096142 6.451880,49.784889 2.965499,62.223148 
	C2.721458,63.093807 2.075102,63.851696 1.307914,64.331009 
	C1.000000,43.070915 1.000000,22.141832 1.000000,1.000000 
	C23.020437,1.000000 45.041561,1.000000 67.861084,1.250085 
	C68.402756,1.984304 68.146027,2.468439 67.471115,2.974145 
	C58.787312,3.959224 51.002697,6.331572 43.595215,10.937969 
	C34.997177,14.756401 28.102501,20.310858 21.695721,26.954697 
	C21.345709,27.360479 21.249866,27.672222 21.078522,28.222683 
	C20.966503,28.624268 20.929989,28.787140 20.893473,28.950012 
z"/>
<path fill="#2ACDFE" opacity="1.000000" stroke="none" 
	d="
M166.998901,472.166687 
	C177.689621,472.118103 188.380356,472.069489 199.535095,472.551697 
	C199.666092,486.388336 199.333038,499.694183 199.000000,513.000000 
	C187.979111,513.000000 176.958206,513.000000 165.542801,512.620300 
	C165.765518,509.544312 166.862915,506.857361 166.915314,504.150116 
	C167.121597,493.492432 166.999268,482.828369 166.998901,472.166687 
z"/>
<path fill="#30C8FE" opacity="1.000000" stroke="none" 
	d="
M199.468658,513.000000 
	C199.333038,499.694183 199.666092,486.388336 199.998627,472.624451 
	C210.355774,472.117950 220.713425,472.069458 231.535004,472.552063 
	C231.999115,481.714966 232.148773,490.350311 231.943542,498.977264 
	C231.820236,504.160889 231.801407,509.143646 236.000000,513.000000 
	C223.979111,513.000000 211.958206,513.000000 199.468658,513.000000 
z"/>
<path fill="#0FE5FE" opacity="1.000000" stroke="none" 
	d="
M68.444168,513.000000 
	C67.556824,512.341919 67.244606,511.280426 66.650444,511.087555 
	C59.865429,508.885223 53.037445,506.815308 46.324837,504.056030 
	C46.619209,490.999084 46.740486,478.594421 47.039219,466.194092 
	C47.138226,462.084320 47.693829,457.985535 48.040680,453.881744 
	C54.907852,463.052643 63.640827,469.267883 75.595169,471.551361 
	C75.999687,485.721405 75.999847,499.360687 76.000000,513.000000 
	C73.629440,513.000000 71.258888,513.000000 68.444168,513.000000 
z"/>
<path fill="#24D2FE" opacity="1.000000" stroke="none" 
	d="
M166.535339,472.093719 
	C166.999268,482.828369 167.121597,493.492432 166.915314,504.150116 
	C166.862915,506.857361 165.765518,509.544312 165.074142,512.620300 
	C155.312439,513.000000 145.624878,513.000000 135.490906,512.578979 
	C135.363007,509.058105 135.920929,505.960968 135.956116,502.857910 
	C136.072128,492.628693 135.998978,482.397308 135.998489,472.166748 
	C146.022919,472.118103 156.047333,472.069427 166.535339,472.093719 
z"/>
<path fill="#34C4FE" opacity="1.000000" stroke="none" 
	d="
M236.468658,513.000000 
	C231.801407,509.143646 231.820236,504.160889 231.943542,498.977264 
	C232.148773,490.350311 231.999115,481.714966 231.998474,472.625122 
	C242.022293,472.118683 252.046570,472.070282 262.534302,472.094574 
	C262.998108,483.227753 263.045349,494.288635 262.960114,505.348450 
	C262.942566,507.626678 262.430969,509.901123 262.073547,512.588623 
	C253.645767,513.000000 245.291534,513.000000 236.468658,513.000000 
z"/>
<path fill="#17DDFE" opacity="1.000000" stroke="none" 
	d="
M76.468658,513.000000 
	C75.999847,499.360687 75.999687,485.721405 75.998917,471.623962 
	C85.689445,471.450623 95.380577,471.735352 105.535629,472.551239 
	C105.999710,486.388275 105.999855,499.694122 106.000000,513.000000 
	C96.312439,513.000000 86.624878,513.000000 76.468658,513.000000 
z"/>
<path fill="#1DD8FE" opacity="1.000000" stroke="none" 
	d="
M106.468658,513.000000 
	C105.999855,499.694122 105.999710,486.388275 105.999153,472.624329 
	C115.689613,472.117859 125.380470,472.069489 135.534912,472.093933 
	C135.998978,482.397308 136.072128,492.628693 135.956116,502.857910 
	C135.920929,505.960968 135.363007,509.058105 135.022247,512.578979 
	C125.645775,513.000000 116.291542,513.000000 106.468658,513.000000 
z"/>
<path fill="#38C0FE" opacity="1.000000" stroke="none" 
	d="
M279.531342,1.000000 
	C275.959198,4.283920 275.814117,8.710329 275.933167,13.461065 
	C276.162384,22.608017 276.000031,31.764778 275.999756,41.375511 
	C267.641998,41.882832 259.284515,41.932110 250.463562,41.449532 
	C250.000244,32.285660 249.850998,23.650091 250.056488,15.022971 
	C250.179947,9.839241 250.198364,4.856509 246.000000,1.000000 
	C257.020905,1.000000 268.041779,1.000000 279.531342,1.000000 
z"/>
<path fill="#14E0FE" opacity="1.000000" stroke="none" 
	d="
M67.889297,2.952574 
	C68.146027,2.468439 68.402756,1.984304 68.329742,1.250085 
	C76.687561,1.000000 85.375130,1.000000 94.605194,1.411324 
	C95.431976,4.098848 95.944336,6.373297 95.961830,8.651545 
	C96.046761,19.711782 95.999039,30.773037 95.998306,41.833931 
	C87.292175,42.559963 78.586044,43.285999 69.471092,43.630173 
	C69.328201,31.314507 69.666435,19.381321 69.768585,7.446117 
	C69.781357,5.953740 68.546219,4.450683 67.889297,2.952574 
z"/>
<path fill="#2ACDFE" opacity="1.000000" stroke="none" 
	d="
M198.997910,41.832962 
	C190.307388,41.882507 181.616852,41.932056 172.463043,41.449394 
	C171.999847,34.821274 172.128418,28.721956 171.966675,22.630348 
	C171.775162,15.416761 171.333328,8.209822 171.000000,1.000000 
	C180.020889,1.000000 189.041794,1.000000 198.530243,1.433044 
	C198.997833,15.188380 198.997879,28.510672 198.997910,41.832962 
z"/>
<path fill="#1BDAFE" opacity="1.000000" stroke="none" 
	d="
M96.461716,41.908974 
	C95.999039,30.773037 96.046761,19.711782 95.961830,8.651545 
	C95.944336,6.373297 95.431976,4.098848 95.073853,1.411324 
	C102.687576,1.000000 110.375153,1.000000 118.628006,1.351230 
	C120.128899,4.358593 121.794182,6.993581 121.871857,9.674572 
	C122.182251,20.386507 121.999130,31.112740 121.998619,41.833679 
	C113.640785,41.883793 105.282951,41.933907 96.461716,41.908974 
z"/>
<path fill="#2EC9FE" opacity="1.000000" stroke="none" 
	d="
M199.461533,41.907124 
	C198.997879,28.510672 198.997833,15.188380 198.998901,1.433044 
	C207.354233,1.000000 215.708466,1.000000 224.509064,1.421019 
	C224.636948,4.941885 224.079330,8.038998 224.043839,11.142080 
	C223.926849,21.371294 223.998779,31.602669 223.998169,41.833214 
	C215.973831,41.882568 207.949493,41.931927 199.461533,41.907124 
z"/>
<path fill="#26D1FE" opacity="1.000000" stroke="none" 
	d="
M170.531433,1.000000 
	C171.333328,8.209822 171.775162,15.416761 171.966675,22.630348 
	C172.128418,28.721956 171.999847,34.821274 171.999557,41.375214 
	C163.641434,41.882961 155.283539,41.932678 146.462433,41.449749 
	C145.999481,32.638577 146.017624,24.360006 145.993515,16.081556 
	C145.978271,10.845413 145.374954,5.505007 149.000000,1.000000 
	C156.020950,1.000000 163.041901,1.000000 170.531433,1.000000 
z"/>
<path fill="#34C4FE" opacity="1.000000" stroke="none" 
	d="
M224.461761,41.907402 
	C223.998779,31.602669 223.926849,21.371294 224.043839,11.142080 
	C224.079330,8.038998 224.636948,4.941885 224.977722,1.421019 
	C231.687637,1.000000 238.375290,1.000000 245.531464,1.000000 
	C250.198364,4.856509 250.179947,9.839241 250.056488,15.022971 
	C249.850998,23.650091 250.000244,32.285660 250.000076,41.375725 
	C241.641800,41.883049 233.283569,41.932320 224.461761,41.907402 
z"/>
<path fill="#20D6FE" opacity="1.000000" stroke="none" 
	d="
M148.531342,1.000000 
	C145.374954,5.505007 145.978271,10.845413 145.993515,16.081556 
	C146.017624,24.360006 145.999481,32.638577 145.998962,41.375130 
	C138.307678,41.882961 130.616653,41.932766 122.462120,41.908127 
	C121.999130,31.112740 122.182251,20.386507 121.871857,9.674572 
	C121.794182,6.993581 120.128899,4.358593 119.096642,1.351230 
	C128.687561,1.000000 138.375122,1.000000 148.531342,1.000000 
z"/>
<path fill="#08EBFE" opacity="1.000000" stroke="none" 
	d="
M47.897987,453.555115 
	C47.693829,457.985535 47.138226,462.084320 47.039219,466.194092 
	C46.740486,478.594421 46.619209,490.999084 46.161366,503.726227 
	C36.296665,500.568542 28.858685,494.091827 21.976313,486.466614 
	C21.971727,335.409180 21.987391,184.703766 21.976151,33.998379 
	C21.976042,32.531620 21.618919,31.064880 21.160973,29.274071 
	C20.929989,28.787140 20.966503,28.624268 21.250139,28.065262 
	C21.701401,27.429459 21.852278,27.159969 21.949890,26.860659 
	C28.102501,20.310858 34.997177,14.756401 43.604790,11.414228 
	C43.986992,27.947975 43.965855,44.063652 44.037254,60.178917 
	C44.045837,62.116127 44.556114,64.051117 44.833855,65.987129 
	C43.555424,73.463440 41.178967,80.937447 41.163219,88.416412 
	C40.925747,201.181641 40.947556,313.947571 41.093418,426.713104 
	C41.105350,435.940277 42.429909,445.173157 47.897987,453.555115 
z"/>
<path fill="#3FBAFE" opacity="1.000000" stroke="none" 
	d="
M282.999207,282.166687 
	C294.200592,282.828247 304.159698,287.223480 312.966583,293.653839 
	C329.827118,305.964630 339.880035,322.335022 342.139679,343.599335 
	C344.416321,365.023346 337.391266,383.114838 323.570282,398.595734 
	C316.226379,406.821716 306.948120,413.206329 295.324554,415.690460 
	C294.220856,413.188293 293.127563,411.019867 293.083801,408.830505 
	C292.890717,399.169312 293.132355,389.498932 292.903076,379.839294 
	C292.848297,377.531036 291.588440,375.251343 290.987122,372.683594 
	C291.689270,371.924988 292.287079,371.441284 293.256897,370.946167 
	C294.404938,369.918213 295.180939,368.901672 296.099182,367.558777 
	C297.155792,365.525848 298.475220,363.914886 298.905029,362.093933 
	C299.996460,357.469666 301.709473,352.669067 301.339813,348.087006 
	C300.434814,336.868591 293.915497,329.091461 283.974121,323.626892 
	C283.988434,315.062225 284.118256,306.970001 283.957275,298.883606 
	C283.846252,293.307159 283.332794,287.738708 282.999207,282.166687 
z"/>
<path fill="#3DBCFE" opacity="1.000000" stroke="none" 
	d="
M279.041290,99.884247 
	C299.992035,108.184769 312.839996,124.126534 318.733826,145.117065 
	C324.458405,165.504807 321.018097,185.210129 308.968994,202.950562 
	C301.159760,214.448471 290.487823,222.552002 277.284027,227.500336 
	C276.556641,224.907089 276.052582,222.780777 276.037811,220.651047 
	C275.958191,209.168777 276.051636,197.685242 275.953094,186.203262 
	C275.934998,184.092773 275.307892,181.987518 275.106262,179.551270 
	C281.053741,169.788101 281.592712,160.059509 277.104309,149.796600 
	C277.552032,135.274185 277.735077,120.991959 278.041809,106.712379 
	C278.090820,104.430222 278.694183,102.159988 279.041290,99.884247 
z"/>
<path fill="#2EC9FE" opacity="1.000000" stroke="none" 
	d="
M219.900726,225.044556 
	C200.490570,215.170135 188.745956,199.537476 183.892715,178.303299 
	C180.087616,161.654968 182.469543,145.958252 190.067169,131.014511 
	C197.155533,117.072456 208.248703,107.034538 222.645996,100.654861 
	C223.000000,116.246696 222.928665,131.411331 223.093735,146.573380 
	C223.113647,148.402496 224.412262,150.217682 225.064728,152.450546 
	C224.621521,157.909897 224.231796,162.958008 223.492401,168.031036 
	C222.614304,168.713837 221.622711,169.373505 221.625198,170.029404 
	C221.685928,186.085785 221.937439,202.141937 221.903564,218.197601 
	C221.898758,220.481323 220.600388,222.762299 219.900726,225.044556 
z"/>
<path fill="#34C4FE" opacity="1.000000" stroke="none" 
	d="
M259.052490,418.856750 
	C248.078247,416.276733 238.228790,411.323944 229.289185,404.085083 
	C229.273163,401.214966 229.012222,398.952576 229.031082,396.692505 
	C229.299850,364.511566 229.616394,332.330994 229.860062,300.149872 
	C229.868073,299.090729 229.227997,298.026642 228.890030,296.964874 
	C236.676498,292.648743 244.462982,288.332642 252.624405,284.549591 
	C252.999573,297.499146 252.948380,309.916046 253.046967,322.331787 
	C253.064941,324.595978 253.693970,326.855377 253.908875,329.429230 
	C249.074081,335.013550 245.433380,340.774048 244.989670,348.105072 
	C244.238937,360.508881 249.914673,369.395172 260.029724,376.364929 
	C260.013306,383.944275 260.127350,391.050873 259.965576,398.151154 
	C259.808258,405.056396 259.368317,411.955139 259.052490,418.856750 
z"/>
<path fill="#1DD8FE" opacity="1.000000" stroke="none" 
	d="
M130.998337,232.833633 
	C118.099945,233.492203 109.004097,224.831253 109.000259,211.866898 
	C108.992775,186.590363 108.995392,161.313812 108.986160,135.100250 
	C108.985222,120.831253 108.991951,107.499290 108.998680,94.167336 
	C115.689659,94.118347 122.380646,94.069359 129.560699,94.503937 
	C130.366516,97.950455 130.955078,100.913017 130.959152,103.876389 
	C131.018204,146.862076 130.998901,189.847870 130.998337,232.833633 
z"/>
<path fill="#26D1FE" opacity="1.000000" stroke="none" 
	d="
M172.113693,404.044006 
	C164.773010,411.215240 156.070404,415.631012 145.445068,416.590393 
	C145.013687,404.512115 145.057571,392.858337 144.953232,381.205933 
	C144.934326,379.094513 144.308044,376.988556 144.092804,374.566406 
	C153.307724,365.719330 155.872131,346.214935 149.213440,331.848022 
	C150.031555,329.610748 150.916351,327.598907 150.934998,325.579071 
	C151.059311,312.109314 150.998672,298.637817 150.998093,285.166901 
	C159.109848,286.221832 165.607483,290.346588 171.599594,296.420837 
	C171.555344,299.096008 171.039490,301.226471 171.035995,303.357758 
	C170.984146,335.017609 170.980927,366.677582 171.047745,398.337402 
	C171.051758,400.240326 171.742493,402.141846 172.113693,404.044006 
z"/>
<path fill="#48B2FE" opacity="1.000000" stroke="none" 
	d="
M396.999329,94.000931 
	C404.234894,94.332344 411.071136,94.049767 417.683990,95.132263 
	C428.933868,96.973824 433.566833,110.542389 431.557068,119.026199 
	C428.951263,130.026321 419.536072,135.338806 409.688202,135.059418 
	C400.040070,134.785736 390.378113,134.986115 380.722260,135.005661 
	C372.089294,135.023148 364.991577,131.956116 361.074646,123.985504 
	C357.355896,116.418106 357.914764,108.803238 363.040466,101.892303 
	C366.608002,97.082230 371.451630,94.212494 377.521881,94.039566 
	C383.842987,93.859489 390.173248,94.000374 396.999329,94.000931 
z"/>
<path fill="#48B2FE" opacity="1.000000" stroke="none" 
	d="
M362.679688,315.254456 
	C357.608887,308.322479 357.794586,301.197327 361.030914,294.149292 
	C364.399445,286.813324 370.809357,283.332733 378.583618,283.089844 
	C389.894928,282.736389 401.246704,282.568512 412.541809,283.123779 
	C423.516449,283.663269 431.428925,291.449371 431.929596,302.958038 
	C432.460388,315.158081 423.869507,323.559906 412.891724,323.911865 
	C400.915649,324.295868 388.908813,324.274170 376.933258,323.882904 
	C371.065460,323.691193 366.064789,320.893524 362.679688,315.254456 
z"/>
<path fill="#48B2FE" opacity="1.000000" stroke="none" 
	d="
M409.699524,419.000336 
	C400.068756,419.001038 390.886597,419.389587 381.751221,418.901764 
	C370.757355,418.314697 363.445862,415.215759 359.726715,403.287567 
	C355.573792,389.968262 367.495941,377.273682 378.005585,377.862457 
	C388.964935,378.476379 400.012085,378.480530 410.971893,377.871002 
	C422.887299,377.208344 430.851501,386.739532 431.989868,395.080475 
	C433.456421,405.825806 425.442169,417.910767 414.418182,418.057068 
	C412.997833,418.075897 411.585083,418.671539 409.699524,419.000336 
z"/>
<path fill="#48B2FE" opacity="1.000000" stroke="none" 
	d="
M360.586761,217.102905 
	C357.338837,207.705841 358.756531,199.496475 366.364441,193.383987 
	C369.191010,191.113037 373.234436,189.350784 376.803528,189.194260 
	C388.587067,188.677536 400.407440,188.999557 412.213654,189.001038 
	C421.775909,189.002228 428.355377,194.109482 431.366669,203.865417 
	C433.760590,211.621109 430.427765,221.482803 423.245911,225.780273 
	C420.217072,227.592651 416.355011,228.740723 412.827515,228.857529 
	C401.366394,229.237030 389.882385,228.852249 378.412079,229.048981 
	C369.741150,229.197693 364.369659,224.808624 360.586761,217.102905 
z"/>
<path fill="#1BDAFE" opacity="1.000000" stroke="none" 
	d="
M123.998344,417.833252 
	C119.650848,418.223724 115.309174,418.746857 110.952927,418.938049 
	C109.262077,419.012238 107.538307,418.336548 105.414566,417.459961 
	C104.999451,372.333893 104.999290,327.750305 104.999138,283.166718 
	C111.023476,283.117859 117.047821,283.069000 123.535645,283.551453 
	C123.998871,328.666290 123.998611,373.249786 123.998344,417.833252 
z"/>
<path fill="#22D4FE" opacity="1.000000" stroke="none" 
	d="
M131.387634,232.907837 
	C130.998901,189.847870 131.018204,146.862076 130.959152,103.876389 
	C130.955078,100.913017 130.366516,97.950455 130.024048,94.577240 
	C136.356216,94.118126 142.714142,94.069290 149.535614,94.551804 
	C150.013702,108.427147 150.028229,121.771141 150.042755,135.115143 
	C150.028336,160.097977 149.627563,185.089325 150.178329,210.059692 
	C150.418594,220.953049 142.764771,231.389862 131.387634,232.907837 
z"/>
<path fill="#17DDFE" opacity="1.000000" stroke="none" 
	d="
M104.611504,283.093811 
	C104.999290,327.750305 104.999451,372.333893 104.999374,417.375549 
	C97.045692,418.576019 88.043854,408.887817 88.028122,401.060242 
	C87.960258,367.287231 87.861465,333.512970 88.115128,299.741699 
	C88.166222,292.939453 93.076057,284.971619 104.611504,283.093811 
z"/>
<path fill="#30C8FE" opacity="1.000000" stroke="none" 
	d="
M228.581879,297.087311 
	C229.227997,298.026642 229.868073,299.090729 229.860062,300.149872 
	C229.616394,332.330994 229.299850,364.511566 229.031082,396.692505 
	C229.012222,398.952576 229.273163,401.214966 229.147400,403.762268 
	C209.317398,387.946716 201.846283,366.682648 204.200195,342.161041 
	C205.924896,324.194305 214.694107,309.222076 228.581879,297.087311 
z"/>
<path fill="#2ACDFE" opacity="1.000000" stroke="none" 
	d="
M172.422943,403.917236 
	C171.742493,402.141846 171.051758,400.240326 171.047745,398.337402 
	C170.980927,366.677582 170.984146,335.017609 171.035995,303.357758 
	C171.039490,301.226471 171.555344,299.096008 171.913330,296.565674 
	C181.806992,304.145447 187.541367,314.907684 190.701447,326.690857 
	C196.320862,347.644409 195.362946,368.436829 184.856506,387.885345 
	C181.726440,393.679382 176.823074,398.515442 172.422943,403.917236 
z"/>
<path fill="#20D6FE" opacity="1.000000" stroke="none" 
	d="
M124.461723,417.907715 
	C123.998611,373.249786 123.998871,328.666290 123.998734,283.624786 
	C128.358871,283.117767 132.719391,283.068817 137.539673,283.551453 
	C137.999451,297.333221 137.999481,310.583405 137.546555,323.907166 
	C134.500031,323.980774 131.906464,323.980774 129.339157,323.980774 
	C129.339157,341.963196 129.339157,359.406952 129.339157,377.911560 
	C134.570724,376.826996 139.266434,375.853546 143.962158,374.880066 
	C144.308044,376.988556 144.934326,379.094513 144.953232,381.205933 
	C145.057571,392.858337 145.013687,404.512115 145.030273,416.641479 
	C138.334976,417.405731 131.630035,417.693939 124.461723,417.907715 
z"/>
<path fill="#3BBEFE" opacity="1.000000" stroke="none" 
	d="
M259.485352,418.920776 
	C259.368317,411.955139 259.808258,405.056396 259.965576,398.151154 
	C260.127350,391.050873 260.013306,383.944275 260.413818,376.419739 
	C271.470734,381.296173 281.404877,379.383514 290.882812,372.958527 
	C291.588440,375.251343 292.848297,377.531036 292.903076,379.839294 
	C293.132355,389.498932 292.890717,399.169312 293.083801,408.830505 
	C293.127563,411.019867 294.220856,413.188293 294.935455,415.742157 
	C285.101044,420.084198 274.892944,421.174622 264.353699,419.115570 
	C262.921387,418.835724 261.398956,419.016998 259.485352,418.920776 
z"/>
<path fill="#38C0FE" opacity="1.000000" stroke="none" 
	d="
M254.040939,329.117004 
	C253.693970,326.855377 253.064941,324.595978 253.046967,322.331787 
	C252.948380,309.916046 252.999573,297.499146 252.999008,284.624603 
	C262.582855,281.619812 272.198883,279.501068 282.578674,282.082367 
	C283.332794,287.738708 283.846252,293.307159 283.957275,298.883606 
	C284.118256,306.970001 283.988434,315.062225 283.569153,323.571106 
	C278.114990,323.643280 272.908081,322.357269 268.080200,323.212097 
	C263.204773,324.075317 258.705170,327.061096 254.040939,329.117004 
z"/>
<path fill="#34C4FE" opacity="1.000000" stroke="none" 
	d="
M225.118225,152.039307 
	C224.412262,150.217682 223.113647,148.402496 223.093735,146.573380 
	C222.928665,131.411331 223.000000,116.246696 222.999573,100.624817 
	C231.973953,96.320648 241.232040,93.770615 251.550949,94.551979 
	C251.999283,108.333000 251.999207,121.583160 251.576019,134.906036 
	C249.378311,135.191544 247.577072,135.276062 245.833557,135.638382 
	C236.202484,137.639893 230.261749,144.345474 225.118225,152.039307 
z"/>
<path fill="#34C4FE" opacity="1.000000" stroke="none" 
	d="
M220.073700,225.372421 
	C220.600388,222.762299 221.898758,220.481323 221.903564,218.197601 
	C221.937439,202.141937 221.685928,186.085785 221.625198,170.029404 
	C221.622711,169.373505 222.614304,168.713837 223.562897,168.427063 
	C225.078064,171.791702 225.784851,175.006348 227.340454,177.737503 
	C232.101349,186.096222 240.028931,189.978622 248.999847,192.624329 
	C248.999817,206.333160 248.999542,219.583755 248.999268,232.834335 
	C238.871094,232.648727 229.425812,229.710831 220.073700,225.372421 
z"/>
<path fill="#0FE5FE" opacity="1.000000" stroke="none" 
	d="
M44.989182,65.662827 
	C44.556114,64.051117 44.045837,62.116127 44.037254,60.178917 
	C43.965855,44.063652 43.986992,27.947975 43.970596,11.356162 
	C51.002697,6.331572 58.787312,3.959224 67.471115,2.974146 
	C68.546219,4.450683 69.781357,5.953740 69.768585,7.446117 
	C69.666435,19.381321 69.328201,31.314507 69.051826,43.675674 
	C58.497890,48.280590 50.258331,55.050827 44.989182,65.662827 
z"/>
<path fill="#38C0FE" opacity="1.000000" stroke="none" 
	d="
M249.451385,232.907990 
	C248.999542,219.583755 248.999817,206.333160 249.434067,192.550751 
	C251.971603,191.809570 254.077713,191.622803 256.178284,191.386917 
	C264.231628,190.482544 269.649963,185.265594 274.961884,179.879837 
	C275.307892,181.987518 275.934998,184.092773 275.953094,186.203262 
	C276.051636,197.685242 275.958191,209.168777 276.037811,220.651047 
	C276.052582,222.780777 276.556641,224.907089 276.916565,227.434341 
	C268.390778,231.781891 259.293365,233.151382 249.451385,232.907990 
z"/>
<path fill="#38C0FE" opacity="1.000000" stroke="none" 
	d="
M251.999130,134.833313 
	C251.999207,121.583160 251.999283,108.333000 251.999008,94.624832 
	C261.331818,93.560677 270.044281,96.227516 278.867279,99.556709 
	C278.694183,102.159988 278.090820,104.430222 278.041809,106.712379 
	C277.735077,120.991959 277.552032,135.274185 276.794037,149.645355 
	C271.169373,139.889786 262.510925,135.852844 251.999130,134.833313 
z"/>
<path fill="#26D1FE" opacity="1.000000" stroke="none" 
	d="
M150.496307,135.064911 
	C150.028229,121.771141 150.013702,108.427147 149.998840,94.625137 
	C156.365402,93.916809 162.624695,93.471252 168.320160,97.633781 
	C175.300797,102.735565 179.181534,112.049538 176.581696,119.906387 
	C173.273331,129.904465 167.504425,133.809067 157.428879,134.965820 
	C155.295456,135.210754 153.110886,135.010040 150.496307,135.064911 
z"/>
<path fill="#17DDFE" opacity="1.000000" stroke="none" 
	d="
M108.544678,94.094284 
	C108.991951,107.499290 108.985222,120.831253 108.968430,134.639099 
	C102.634140,134.958359 96.320290,135.321014 90.655724,131.325577 
	C83.278793,126.122337 79.694756,116.402695 83.224510,106.793182 
	C85.949600,99.374359 91.661369,94.807648 101.103516,94.030556 
	C103.417152,93.840141 105.760818,94.014549 108.544678,94.094284 
z"/>
<path fill="#22D4FE" opacity="1.000000" stroke="none" 
	d="
M137.999512,323.833557 
	C137.999481,310.583405 137.999451,297.333221 137.999207,283.625061 
	C142.091476,283.713501 146.183975,284.260010 150.637268,284.986694 
	C150.998672,298.637817 151.059311,312.109314 150.934998,325.579071 
	C150.916351,327.598907 150.031555,329.610748 148.897491,331.703888 
	C146.121857,327.468475 142.740143,324.774902 137.999512,323.833557 
z"/>
<path fill="#03EFFE" opacity="1.000000" stroke="none" 
	d="
M21.695721,26.954697 
	C21.852278,27.159969 21.701401,27.429459 21.325642,27.826546 
	C21.249866,27.672222 21.345709,27.360479 21.695721,26.954697 
z"/>
<path fill="#000000" opacity="1.000000" stroke="none" 
	d="
M253.908875,329.429260 
	C258.705170,327.061096 263.204773,324.075317 268.080200,323.212097 
	C272.908081,322.357269 278.114990,323.643280 283.560638,324.046082 
	C293.915497,329.091461 300.434814,336.868591 301.339813,348.087006 
	C301.709473,352.669067 299.996460,357.469666 298.905029,362.093933 
	C298.475220,363.914886 297.155792,365.525848 295.805359,367.679077 
	C294.541168,369.069702 293.713043,370.013641 292.884888,370.957581 
	C292.287079,371.441284 291.689270,371.924988 290.987122,372.683594 
	C281.404877,379.383514 271.470734,381.296173 260.423615,375.944244 
	C249.914673,369.395172 244.238937,360.508881 244.989670,348.105072 
	C245.433380,340.774048 249.074081,335.013550 253.908875,329.429260 
z"/>
<path fill="#3BBEFE" opacity="1.000000" stroke="none" 
	d="
M293.256897,370.946167 
	C293.713043,370.013641 294.541168,369.069702 295.663116,368.005432 
	C295.180939,368.901672 294.404938,369.918213 293.256897,370.946167 
z"/>
<path fill="#000000" opacity="1.000000" stroke="none" 
	d="
M251.576019,134.906036 
	C262.510925,135.852844 271.169373,139.889786 276.570312,149.886414 
	C281.592712,160.059509 281.053741,169.788101 275.106262,179.551270 
	C269.649963,185.265594 264.231628,190.482544 256.178284,191.386917 
	C254.077713,191.622803 251.971603,191.809570 249.433823,192.092499 
	C240.028931,189.978622 232.101349,186.096222 227.340454,177.737503 
	C225.784851,175.006348 225.078064,171.791702 223.912567,168.402161 
	C224.231796,162.958008 224.621521,157.909897 225.064728,152.450546 
	C230.261749,144.345474 236.202484,137.639893 245.833557,135.638382 
	C247.577072,135.276062 249.378311,135.191544 251.576019,134.906036 
z"/>
<path fill="#000000" opacity="1.000000" stroke="none" 
	d="
M137.546555,323.907166 
	C142.740143,324.774902 146.121857,327.468475 148.563507,331.925659 
	C155.872131,346.214935 153.307724,365.719330 144.092804,374.566406 
	C139.266434,375.853546 134.570724,376.826996 129.339157,377.911560 
	C129.339157,359.406952 129.339157,341.963196 129.339157,323.980774 
	C131.906464,323.980774 134.500031,323.980774 137.546555,323.907166 
z"/>
</svg>